<?xml version="1.0" encoding="UTF-8" standalone="no"?>
<!-- Created with Inkscape (http://www.inkscape.org/) -->

<svg
   version="1.1"
   id="svg2"
   width="22.411066"
   height="27.299067"
   viewBox="0 0 22.411066 27.299067"
   sodipodi:docname="abc-branik-praha-logo-outlined-full-color-rgb.ai"
   xmlns:inkscape="http://www.inkscape.org/namespaces/inkscape"
   xmlns:sodipodi="http://sodipodi.sourceforge.net/DTD/sodipodi-0.dtd"
   xmlns="http://www.w3.org/2000/svg"
   xmlns:svg="http://www.w3.org/2000/svg">
  <defs
     id="defs6">
    <clipPath
       clipPathUnits="userSpaceOnUse"
       id="clipPath28">
      <path
         d="M 0,20.474 H 16.808 V 0 H 0 Z"
         id="path26" />
    </clipPath>
  </defs>
  <sodipodi:namedview
     id="namedview4"
     pagecolor="#ffffff"
     bordercolor="#000000"
     borderopacity="0.25"
     inkscape:showpageshadow="2"
     inkscape:pageopacity="0.0"
     inkscape:pagecheckerboard="0"
     inkscape:deskcolor="#d1d1d1" />
  <g
     id="g8"
     inkscape:groupmode="layer"
     inkscape:label="abc-branik-praha-logo-outlined-full-color-rgb"
     transform="matrix(1.3333333,0,0,-1.3333333,0,27.299067)">
    <g
       id="g10"
       transform="translate(5.9031,20.4741)">
      <path
         d="M 0,0 -0.894,-0.75 -1.89,-1.587 v -0.474 h -0.563 -3.45 v -15.621 l 8.405,-2.792 8.403,2.792 V -2.061 H 7.458 6.892 v 0.477 L 5.006,0 Z"
         style="fill:#ffffff;fill-opacity:1;fill-rule:nonzero;stroke:none"
         id="path12" />
    </g>
    <g
       id="g14"
       transform="translate(8.4041,1.6622)">
      <path
         d="m 0,0 -6.827,2.268 1.884,1.77 0.641,0.601 2.372,2.228 0.871,0.818 1.3,1.22 0.927,0.871 0.007,0.007 0.871,0.819 1.128,1.06 0.87,0.816 2.783,2.613 V 2.268 Z"
         style="fill:#609bc6;fill-opacity:1;fill-rule:nonzero;stroke:none"
         id="path16" />
    </g>
    <g
       id="g18"
       transform="translate(6.4557,4.4883)">
      <path
         d="m 0,0 -0.382,-0.454 h 0.305 l 0.099,0.122 V -1.264 H 0.255 V 0 Z"
         style="fill:#010101;fill-opacity:1;fill-rule:nonzero;stroke:none"
         id="path20" />
    </g>
    <g
       id="g22">
      <g
         id="g24"
         clip-path="url(#clipPath28)">
        <g
           id="g30"
           transform="translate(7.2105,3.9616)">
          <path
             d="M 0,0 H 0.771 V 0.276 C 0.771,0.282 0.769,0.287 0.765,0.291 0.761,0.295 0.756,0.297 0.75,0.297 H 0 C -0.006,0.297 -0.011,0.295 -0.015,0.291 -0.019,0.287 -0.021,0.282 -0.021,0.276 V 0.021 c 0,-0.006 0.002,-0.011 0.006,-0.015 C -0.011,0.002 -0.006,0 0,0 m -0.118,-0.707 c -0.034,0.021 -0.063,0.048 -0.087,0.083 -0.024,0.034 -0.04,0.073 -0.048,0.116 H 0.75 c 0.006,0 0.011,0.003 0.015,0.007 0.004,0.004 0.006,0.009 0.006,0.015 v 0.233 c 0,0.006 -0.002,0.011 -0.006,0.015 -0.004,0.004 -0.009,0.006 -0.015,0.006 h -0.759 c -0.045,0 -0.086,0.011 -0.123,0.034 -0.036,0.022 -0.065,0.051 -0.087,0.088 -0.023,0.037 -0.034,0.078 -0.034,0.122 v 0.272 c 0,0.045 0.011,0.086 0.034,0.122 0.022,0.037 0.051,0.067 0.087,0.088 0.037,0.022 0.078,0.033 0.123,0.033 H 0.758 C 0.803,0.527 0.843,0.516 0.88,0.494 0.916,0.473 0.945,0.444 0.967,0.407 0.99,0.371 1.001,0.33 1.001,0.284 V -0.495 C 1.001,-0.539 0.99,-0.579 0.967,-0.615 0.945,-0.652 0.916,-0.682 0.88,-0.704 0.843,-0.726 0.803,-0.737 0.758,-0.737 h -0.767 c -0.038,0 -0.075,0.01 -0.109,0.03"
             style="fill:#010101;fill-opacity:1;fill-rule:nonzero;stroke:none"
             id="path32" />
        </g>
        <g
           id="g34"
           transform="translate(8.8293,3.2242)">
          <path
             d="M 0,0 V 0.932 L -0.1,0.809 h -0.304 l 0.381,0.455 H 0.232 L 0.232,0 Z"
             style="fill:#010101;fill-opacity:1;fill-rule:nonzero;stroke:none"
             id="path36" />
        </g>
        <g
           id="g38"
           transform="translate(9.5845,3.7737)">
          <path
             d="m 0,0 h 0.437 v 0.365 z m 0.437,-0.55 v 0.318 h -0.795 v 0.216 L 0.451,0.715 H 0.667 V 0 H 0.844 V -0.232 H 0.667 V -0.55 Z"
             style="fill:#010101;fill-opacity:1;fill-rule:nonzero;stroke:none"
             id="path40" />
        </g>
        <g
           id="g42"
           transform="translate(13.3186,18.0649)">
          <path
             d="m 0,0 v -0.702 h 2.439 v -13.813 l -7.353,-2.443 -7.264,2.413 -0.09,0.03 v 13.813 h 2.441 V 0 h -3.143 v -15.023 l 8.056,-2.675 8.055,2.675 0,15.023 z"
             style="fill:#010101;fill-opacity:1;fill-rule:nonzero;stroke:none"
             id="path44" />
        </g>
        <g
           id="g46"
           transform="translate(10.4488,11.4548)">
          <path
             d="m 0,0 v 1.326 l -0.083,0.07 -0.24,0.202 -0.279,0.233 0.279,0.236 0.24,0.201 L 0,2.339 V 3.578 H 1.129 V 1.884 0 Z M -0.871,-2.966 -1.12,-3.174 H -3.104 V -0.871 0 1.396 h 1.666 L -0.871,0.92 V 0 h -1.882 l 0.47,-0.871 h 1.412 z m -4.345,6.544 h 1.241 V 0 h -1.241 z m 4.345,0 V 2.744 L -1.438,2.268 -1.44,2.267 h -1.664 v 1.311 h 1.411 l 0.471,0.871 h -1.882 v 1.312 h 1.666 L -1.132,5.504 -1.004,5.397 -0.871,5.285 V 4.449 Z m -4.345,3.305 0.435,0.365 0.679,0.569 H 0.014 L 0.694,7.248 1.129,6.883 V 5.397 4.449 H 0 v 0.948 0.294 l -0.083,0.07 -0.194,0.163 -0.046,0.039 -0.548,0.46 -0.242,0.203 -0.007,0.006 H -3.975 V 4.449 h -1.241 z m 7.214,-10.05 v 2.296 h 0.149 l 1.115,-0.934 0.257,-0.216 h 0.612 v 0.622 L 3.503,-0.871 3.262,-0.669 2.465,0 H 1.998 V 2.7 5.397 7.288 L 1.37,7.817 1.129,8.019 0.332,8.688 H -4.419 L -5.216,8.019 -5.457,7.817 -6.087,7.287 V 0 h -0.467 l -0.796,-0.667 -0.002,-0.002 -0.24,-0.202 -0.629,-0.528 v -3.303 l 0.629,-0.529 0.24,-0.201 0.002,-0.002 0.364,-0.306 0.432,-0.361 h 9.019 l 0.797,0.669 0.241,0.201 0.628,0.529 V -4.08 H 3.519 L 3.262,-4.296 2.147,-5.231 h -8.384 l -0.11,0.094 -1.003,0.839 v 2.495 l 1.113,0.932 h 0.15 v -2.296 h 0.871 v 2.296 h 1.241 v -3.174 h 3.173 l 0.36,0.302 0.119,0.1 0.24,0.202 0.083,0.07 v 2.5 h 1.129 v -2.296 z"
             style="fill:#010101;fill-opacity:1;fill-rule:nonzero;stroke:none"
             id="path48" />
        </g>
      </g>
    </g>
  </g>
</svg>
